solid ascii
  facet normal 9.950372e-01 9.950372e-02 -0.000000e+00
    outer loop
      vertex   5.204170e-15 2.540000e+01 0.000000e+00
      vertex   5.204170e-15 2.540000e+01 5.080000e+01
      vertex   2.540000e+00 -3.469447e-15 5.080000e+01
    endloop
  endfacet
  facet normal 9.950372e-01 9.950372e-02 0.000000e+00
    outer loop
      vertex   2.540000e+00 -3.469447e-15 5.080000e+01
      vertex   2.540000e+00 -3.469447e-15 0.000000e+00
      vertex   5.204170e-15 2.540000e+01 0.000000e+00
    endloop
  endfacet
  facet normal 9.950372e-01 -9.950372e-02 0.000000e+00
    outer loop
      vertex   2.540000e+00 -3.469447e-15 0.000000e+00
      vertex   2.540000e+00 -3.469447e-15 5.080000e+01
      vertex   1.734723e-15 -2.540000e+01 5.080000e+01
    endloop
  endfacet
  facet normal 9.950372e-01 -9.950372e-02 0.000000e+00
    outer loop
      vertex   1.734723e-15 -2.540000e+01 5.080000e+01
      vertex   1.734723e-15 -2.540000e+01 0.000000e+00
      vertex   2.540000e+00 -3.469447e-15 0.000000e+00
    endloop
  endfacet
  facet normal -9.950372e-01 -9.950372e-02 0.000000e+00
    outer loop
      vertex   1.734723e-15 -2.540000e+01 0.000000e+00
      vertex   1.734723e-15 -2.540000e+01 5.080000e+01
      vertex   -2.540000e+00 3.469447e-15 5.080000e+01
    endloop
  endfacet
  facet normal -9.950372e-01 -9.950372e-02 -0.000000e+00
    outer loop
      vertex   -2.540000e+00 3.469447e-15 5.080000e+01
      vertex   -2.540000e+00 3.469447e-15 0.000000e+00
      vertex   1.734723e-15 -2.540000e+01 0.000000e+00
    endloop
  endfacet
  facet normal -9.950372e-01 9.950372e-02 0.000000e+00
    outer loop
      vertex   -2.540000e+00 3.469447e-15 0.000000e+00
      vertex   -2.540000e+00 3.469447e-15 5.080000e+01
      vertex   5.204170e-15 2.540000e+01 5.080000e+01
    endloop
  endfacet
  facet normal -9.950372e-01 9.950372e-02 0.000000e+00
    outer loop
      vertex   5.204170e-15 2.540000e+01 5.080000e+01
      vertex   5.204170e-15 2.540000e+01 0.000000e+00
      vertex   -2.540000e+00 3.469447e-15 0.000000e+00
    endloop
  endfacet
  facet normal 0.000000e+00 0.000000e+00 1.000000e+00
    outer loop
      vertex   -2.540000e+00 3.469447e-15 5.080000e+01
      vertex   1.734723e-15 -2.540000e+01 5.080000e+01
      vertex   2.540000e+00 -3.469447e-15 5.080000e+01
    endloop
  endfacet
  facet normal 0.000000e+00 0.000000e+00 1.000000e+00
    outer loop
      vertex   2.540000e+00 -3.469447e-15 5.080000e+01
      vertex   5.204170e-15 2.540000e+01 5.080000e+01
      vertex   -2.540000e+00 3.469447e-15 5.080000e+01
    endloop
  endfacet
  facet normal -0.000000e+00 0.000000e+00 -1.000000e+00
    outer loop
      vertex   2.540000e+00 -3.469447e-15 0.000000e+00
      vertex   1.734723e-15 -2.540000e+01 0.000000e+00
      vertex   -2.540000e+00 3.469447e-15 0.000000e+00
    endloop
  endfacet
  facet normal 0.000000e+00 0.000000e+00 -1.000000e+00
    outer loop
      vertex   -2.540000e+00 3.469447e-15 0.000000e+00
      vertex   5.204170e-15 2.540000e+01 0.000000e+00
      vertex   2.540000e+00 -3.469447e-15 0.000000e+00
    endloop
  endfacet
endsolid
